<svg xmlns="http://www.w3.org/2000/svg" xmlns:xlink="http://www.w3.org/1999/xlink" width="500" zoomAndPan="magnify" viewBox="0 0 375 374.999991" height="500" preserveAspectRatio="xMidYMid meet" version="1.2"><defs><clipPath id="913e213655"><path d="M 18.644531 49 L 356.144531 49 L 356.144531 326.496094 L 18.644531 326.496094 Z M 18.644531 49 "/></clipPath></defs><g id="d8aec63392"><rect x="0" width="375" y="0" height="374.999991" style="fill:#ffffff;fill-opacity:1;stroke:none;"/><rect x="0" width="375" y="0" height="374.999991" style="fill:#000000;fill-opacity:1;stroke:none;"/><g clip-rule="nonzero" clip-path="url(#913e213655)"><path style=" stroke:none;fill-rule:nonzero;fill:#d0fa99;fill-opacity:1;" d="M 117.484375 322.695312 L 170.574219 269.605469 C 173.289062 266.890625 177.710938 266.894531 180.425781 269.605469 L 227.203125 316.386719 C 232.242188 321.425781 240.445312 321.425781 245.488281 316.386719 L 261.746094 300.125 C 264.191406 297.683594 265.535156 294.433594 265.535156 290.980469 C 265.535156 287.527344 264.191406 284.28125 261.746094 281.839844 L 184.640625 204.734375 C 179.601562 199.695312 171.398438 199.695312 166.359375 204.734375 L 82.941406 288.152344 C 77.902344 293.195312 77.902344 301.394531 82.941406 306.4375 L 99.199219 322.695312 C 101.71875 325.21875 105.03125 326.476562 108.34375 326.476562 C 111.652344 326.476562 114.964844 325.21875 117.484375 322.695312 Z M 335.996094 286.539062 L 352.257812 270.277344 C 354.699219 267.835938 356.042969 264.589844 356.042969 261.136719 C 356.042969 257.683594 354.699219 254.433594 352.257812 251.992188 L 244.820312 144.558594 C 239.777344 139.515625 231.578125 139.515625 226.535156 144.558594 L 210.277344 160.820312 C 205.234375 165.859375 205.234375 174.0625 210.277344 179.101562 L 317.714844 286.539062 C 320.234375 289.058594 323.542969 290.320312 326.855469 290.320312 C 330.164062 290.320312 333.476562 289.058594 335.996094 286.539062 Z M 47.835938 265.976562 C 44.382812 265.976562 41.136719 264.632812 38.695312 262.191406 L 22.433594 245.929688 C 19.992188 243.488281 18.648438 240.242188 18.648438 236.789062 C 18.648438 233.335938 19.992188 230.089844 22.433594 227.648438 L 196.78125 53.300781 C 201.820312 48.257812 210.023438 48.257812 215.066406 53.300781 L 231.324219 69.5625 C 236.367188 74.601562 236.367188 82.804688 231.324219 87.84375 L 56.976562 262.191406 C 54.535156 264.632812 51.289062 265.976562 47.835938 265.976562 "/></g></g></svg>